<svg fill="#ED128C" xmlns="http://www.w3.org/2000/svg"  viewBox="0 0 50 50" width="50px" height="50px"><path d="M 25 2 C 24.88725 2 24.775469 2.0186406 24.667969 2.0566406 L 8 7.9394531 L 25 13.939453 L 42 7.9394531 L 25.332031 2.0566406 C 25.224531 2.0186406 25.11275 2 25 2 z M 7 9.7070312 L 7 17.302734 L 6.3457031 17.0625 C 5.8997031 16.8965 5.4033438 17.069703 5.1523438 17.470703 L 0.15234375 25.470703 C -0.00765625 25.726703 -0.044265625 26.039219 0.052734375 26.324219 C 0.15073438 26.609219 0.37129687 26.835453 0.65429688 26.939453 L 5 28.539062 L 5 40 C 5 40.419 5.2612969 40.7935 5.6542969 40.9375 L 24 47.697266 L 24 28.484375 L 25 26.884766 L 26 28.484375 L 26 47.697266 L 44.345703 40.939453 C 44.738703 40.794453 45 40.419 45 40 L 45 28.539062 L 49.345703 26.939453 C 49.627703 26.835453 49.849266 26.609219 49.947266 26.324219 C 50.044266 26.039219 50.007656 25.726703 49.847656 25.470703 L 44.847656 17.470703 C 44.596656 17.070703 44.099297 16.8975 43.654297 17.0625 L 43 17.302734 L 43 9.7070312 L 26 15.707031 L 26 23.564453 L 25 23.933594 L 24 23.564453 L 24 15.707031 L 7 9.7070312 z M 6.4179688 19.21875 L 6.7324219 19.333984 L 23.5 25.513672 L 19.582031 31.78125 L 2.5 25.486328 L 6.4179688 19.21875 z M 43.582031 19.220703 L 47.5 25.488281 L 30.417969 31.779297 L 26.5 25.513672 L 43.582031 19.220703 z"/></svg>