<svg fill="#ED128C" xmlns="http://www.w3.org/2000/svg" viewBox="0 0 64 64"><g id="Expanded"><path d="M57,52H55V51a7,7,0,0,0-7-7H41.16a9.91,9.91,0,0,0,.14-7.65l6.1-6.09h.16a3,3,0,0,0,2.12-.88l7.07-7.07a3,3,0,0,0,0-4.24h0l-2.83-2.83a3.08,3.08,0,0,0-4.24,0l-7.07,7.07a3,3,0,0,0-.87,2.28l-6.09,6.1A9.84,9.84,0,0,0,32,30,10,10,0,0,0,22,40a9.92,9.92,0,0,0,.84,4H16a7,7,0,0,0-7,7v1H7a3,3,0,0,0-3,3v2a3,3,0,0,0,3,3H57a3,3,0,0,0,3-3V55A3,3,0,0,0,57,52ZM44,23.74l7.07-7.07a1,1,0,0,1,1.42,0l2.82,2.82a1,1,0,0,1,0,1.42L48.26,28a1,1,0,0,1-1.4,0L44,25.14A1,1,0,0,1,44,23.74Zm-1.41,2.83,2.82,2.82-5.09,5.1a10.3,10.3,0,0,0-2.83-2.83ZM32,32a8,8,0,1,1-8,8A8,8,0,0,1,32,32ZM11,51a5,5,0,0,1,5-5h8a10,10,0,0,0,16,0h8a5,5,0,0,1,5,5v1H11Zm47,6a1,1,0,0,1-1,1H7a1,1,0,0,1-1-1V55a1,1,0,0,1,1-1H57a1,1,0,0,1,1,1ZM32,46a6,6,0,1,0-6-6A6,6,0,0,0,32,46Zm0-10a4,4,0,1,1-4,4A4,4,0,0,1,32,36ZM19,28A12,12,0,1,0,7,16,12,12,0,0,0,19,28ZM19,6A10,10,0,1,1,9,16,10,10,0,0,1,19,6ZM15.29,17.71a1,1,0,0,1,1.42-1.42L18,17.59l5.29-5.3a1,1,0,0,1,1.42,1.42l-6,6a1,1,0,0,1-1.42,0Z"/></g></svg>