<svg fill="#ED128C" xmlns="http://www.w3.org/2000/svg" viewBox="0 0 32 32"><g id="long_tshirt" data-name="long tshirt"><path d="M28.36,12.11,25.94,5.65a1,1,0,0,0-.57-.58l-5-2A1,1,0,0,0,19,4a3,3,0,0,1-6,0,1,1,0,0,0-.44-.83,1,1,0,0,0-.93-.1l-5,2a1,1,0,0,0-.57.58L3.64,12.11A10.17,10.17,0,0,0,3,15.65V23a1,1,0,0,0,1,1H8v.66a3.26,3.26,0,0,0,1.83,2.93,14.21,14.21,0,0,0,12.32,0A3.27,3.27,0,0,0,24,24.66V24h4a1,1,0,0,0,1-1V15.65A10.17,10.17,0,0,0,28.36,12.11ZM27,22H24V13a1,1,0,0,0-2,0V24.66a1.25,1.25,0,0,1-.71,1.14,12.26,12.26,0,0,1-10.6,0A1.25,1.25,0,0,1,10,24.66V13a1,1,0,0,0-2,0v9H5V15.65a8.1,8.1,0,0,1,.51-2.84L7.78,6.76,11.2,5.4a5,5,0,0,0,9.6,0l3.42,1.36,2.27,6.05A8.1,8.1,0,0,1,27,15.65Z"/></g></svg>