<svg fill="#ED128C" xmlns="http://www.w3.org/2000/svg" viewBox="0 0 32 32"><g id="shirt_2" data-name="shirt 2"><path d="M28.36,13.11,25.94,6.65a1,1,0,0,0-.57-.58L21.94,4.7a1.11,1.11,0,0,0-.23-.41l-2-2a1,1,0,0,0-.36-.22.8.8,0,0,0-.15,0A1.42,1.42,0,0,0,19,2H13a1.55,1.55,0,0,0-.21,0,.58.58,0,0,0-.14,0,1,1,0,0,0-.36.22l-2,2a1.11,1.11,0,0,0-.23.41L6.63,6.07a1,1,0,0,0-.57.58L3.64,13.11A10.13,10.13,0,0,0,3,16.65V24a1,1,0,0,0,1,1H8v.66a3.26,3.26,0,0,0,1.83,2.93,14.21,14.21,0,0,0,12.32,0A3.27,3.27,0,0,0,24,25.66V25h4a1,1,0,0,0,1-1V16.65A10.17,10.17,0,0,0,28.36,13.11ZM19.2,4.61l.58.59L18.49,7.78l-1-.33Zm-6.4,0,1.7,2.84-1,.33L12.22,5.2ZM15,28a12.26,12.26,0,0,1-4.31-1.17A1.25,1.25,0,0,1,10,25.66V14a1,1,0,0,0-2,0v9H5V16.65a8.06,8.06,0,0,1,.51-2.84L7.78,7.76l2.9-1.16,1.43,2.85A1,1,0,0,0,13,10a1.25,1.25,0,0,0,.32-.05L15,9.39ZM14.77,4h2.46L16,6.06ZM27,23H24V14a1,1,0,0,0-2,0V25.66a1.25,1.25,0,0,1-.71,1.14A12.56,12.56,0,0,1,17,28V9.39l1.68.56A1.19,1.19,0,0,0,19,10a1,1,0,0,0,.89-.55L21.32,6.6l2.9,1.16,2.27,6.05A8.1,8.1,0,0,1,27,16.65Z"/></g></svg>