<svg fill="#ED128C" xmlns="http://www.w3.org/2000/svg" viewBox="0 0 32 32"><g id="tank_top" data-name="tank top"><path d="M26.8,13.4A11.36,11.36,0,0,1,25,9.72a11.78,11.78,0,0,1,0-6.45,1,1,0,0,0-.16-.87A1,1,0,0,0,24,2H20a1,1,0,0,0-.95,1.31,4,4,0,0,1-1.53,4.81,3.21,3.21,0,0,1-3,0A4,4,0,0,1,13,3.31,1,1,0,0,0,12,2H8a1,1,0,0,0-.8.4A1,1,0,0,0,7,3.27,11.78,11.78,0,0,1,7,9.72,11.36,11.36,0,0,1,5.2,13.4,1,1,0,0,0,5,14V29a1,1,0,0,0,1,1H26a1,1,0,0,0,1-1V14A1,1,0,0,0,26.8,13.4ZM25,28H7V14.33a13.44,13.44,0,0,0,2-4.05A13.6,13.6,0,0,0,9.26,4h1.5a5.78,5.78,0,0,0,2.76,5.88,5.25,5.25,0,0,0,5,0A5.78,5.78,0,0,0,21.24,4h1.5a13.6,13.6,0,0,0,.3,6.28,13.44,13.44,0,0,0,2,4.05Z"/></g></svg>