<svg fill="#ED128C" xmlns="http://www.w3.org/2000/svg"  viewBox="0 0 50 50" width="50px" height="50px"><path d="M 11 0.59375 L 10.28125 1.28125 L 0.28125 11.28125 C -0.117188 11.679688 -0.117188 12.320313 0.28125 12.71875 C 0.679688 13.117188 1.320313 13.117188 1.71875 12.71875 L 10 4.4375 L 10 40 L 12 40 L 12 4.4375 L 20.28125 12.71875 C 20.679688 13.117188 21.320313 13.117188 21.71875 12.71875 C 22.117188 12.320313 22.117188 11.679688 21.71875 11.28125 L 11.71875 1.28125 Z M 39 0.59375 L 38.28125 1.28125 L 28.28125 11.28125 C 27.882813 11.679688 27.882813 12.320313 28.28125 12.71875 C 28.679688 13.117188 29.320313 13.117188 29.71875 12.71875 L 38 4.4375 L 38 40 L 40 40 L 40 4.4375 L 48.28125 12.71875 C 48.679688 13.117188 49.320313 13.117188 49.71875 12.71875 C 50.117188 12.320313 50.117188 11.679688 49.71875 11.28125 L 39.71875 1.28125 Z M 2 42 C 0.898438 42 0 42.898438 0 44 L 0 48 C 0 49.101563 0.898438 50 2 50 L 48 50 C 49.101563 50 50 49.101563 50 48 L 50 44 C 50 42.898438 49.101563 42 48 42 Z"/></svg>